# xmcd
#
# Track frame offsets:
#	150
#	20297
#	33705
#	49220
#	66147
#	84387
#	100370
#	116472
#	134595
#	154640
#	168015
#	183490
#	200400
#	218630
#	234512
#	250580
#
# Disc length: 3584 seconds
#
# Revision: 1
# Processed by: cddbd v1.5.2PL0 Copyright (c) Steve Scherf et al.
# Submitted via: audiograbber 1.83.01
#
DISCID=d20dfe10
DTITLE=Sound Choice - PowerPicks 3056 Country Picks March 1998 Volume 1
DYEAR=1998
DGENRE=Karoake - Country
TTITLE0=Blackhawk - Postmarked Birmingham (E)
TTITLE1=Garth Brooks - She's Gonna Make It (G)
TTITLE2=Clay Walker - Then What (E)
TTITLE3=Reba McEntire - What If (Dm)
TTITLE4=Melodie Crittenden - Bless The Broken Road (Eb) (Rascal Flatts Cover)
TTITLE5=Shania Twain - You're Still The One (Eb)
TTITLE6=Jeff Carson - Cheatin' On Her Heart (E)
TTITLE7=Shania Twain and Bryan White - From This Moment On (G)
TTITLE8=Blackhawk - Postmarked Birmingham (E) (Vocals Right Channel Only)
TTITLE9=Garth Brooks - She's Gonna Make It (G) (Vocals Right Channel Only)
TTITLE10=Clay Walker - Then What (E) (Vocals Right Channel Only)
TTITLE11=Reba McEntire - What If (Dm) (Vocals Right Channel Only)
TTITLE12=Melodie Crittenden - Bless The Broken Road (Eb) (Rascal Flatts Cover) 
TTITLE12=(Vocals Right Channel Only)
TTITLE13=Shania Twain - You're Still The One (Eb) (Vocals Right Channel Only)
TTITLE14=Jeff Carson - Cheatin' On Her Heart (E) (Vocals Right Channel Only)
TTITLE15=Shania Twain and Bryan White - From This Moment On (G) (Vocals Right Cha
TTITLE15=nnel Only)
EXTD=Karaoke
EXTT0=
EXTT1=
EXTT2=
EXTT3=
EXTT4=
EXTT5=
EXTT6=
EXTT7=
EXTT8=
EXTT9=
EXTT10=
EXTT11=
EXTT12=
EXTT13=
EXTT14=
EXTT15=
PLAYORDER=
